<svg width="52" height="49" viewBox="0 0 52 49" fill="none" xmlns="http://www.w3.org/2000/svg">
<path d="M48.875 11.7167V5.54167C48.875 2.5625 46.4375 0.125 43.4583 0.125H5.54167C4.10508 0.125 2.72733 0.695683 1.7115 1.7115C0.695683 2.72733 0.125 4.10508 0.125 5.54167V43.4583C0.125 44.8949 0.695683 46.2727 1.7115 47.2885C2.72733 48.3043 4.10508 48.875 5.54167 48.875H43.4583C46.4375 48.875 48.875 46.4375 48.875 43.4583V37.2833C49.6937 36.8107 50.3744 36.132 50.8495 35.3148C51.3246 34.4976 51.5776 33.5703 51.5833 32.625V16.375C51.5776 15.4297 51.3246 14.5024 50.8495 13.6852C50.3744 12.8679 49.6937 12.1893 48.875 11.7167ZM46.1667 16.375V32.625H27.2083V16.375H46.1667ZM5.54167 43.4583V5.54167H43.4583V10.9583H27.2083C24.2292 10.9583 21.7917 13.3958 21.7917 16.375V32.625C21.7917 35.6042 24.2292 38.0417 27.2083 38.0417H43.4583V43.4583H5.54167Z" fill="#EF443B"/>
</svg>
