<svg width="45" height="58" viewBox="0 0 45 58" fill="none" xmlns="http://www.w3.org/2000/svg">
<path d="M38.75 19.6667H36.0417V14.25C36.0417 6.775 29.975 0.708328 22.5 0.708328C15.025 0.708328 8.95833 6.775 8.95833 14.25V19.6667H6.24999C3.27083 19.6667 0.833328 22.1042 0.833328 25.0833V52.1667C0.833328 55.1458 3.27083 57.5833 6.24999 57.5833H38.75C41.7292 57.5833 44.1667 55.1458 44.1667 52.1667V25.0833C44.1667 22.1042 41.7292 19.6667 38.75 19.6667ZM14.375 14.25C14.375 9.75416 18.0042 6.125 22.5 6.125C26.9958 6.125 30.625 9.75416 30.625 14.25V19.6667H14.375V14.25ZM38.75 52.1667H6.24999V25.0833H38.75V52.1667ZM22.5 44.0417C25.4792 44.0417 27.9167 41.6042 27.9167 38.625C27.9167 35.6458 25.4792 33.2083 22.5 33.2083C19.5208 33.2083 17.0833 35.6458 17.0833 38.625C17.0833 41.6042 19.5208 44.0417 22.5 44.0417Z" fill="#EF443B"/>
</svg>
