<svg width="28" height="49" viewBox="0 0 28 49" fill="none" xmlns="http://www.w3.org/2000/svg">
<path d="M14.9584 21.5208C8.81045 19.9229 6.83336 18.2708 6.83336 15.6979C6.83336 12.7458 9.56878 10.6875 14.1459 10.6875C18.9667 10.6875 20.7542 12.9896 20.9167 16.375H26.9021C26.7125 11.7167 23.8688 7.4375 18.2084 6.05625V0.125H10.0834V5.975C4.8292 7.1125 0.604199 10.525 0.604199 15.7521C0.604199 22.0083 5.77711 25.1229 13.3334 26.9375C20.1042 28.5625 21.4584 30.9458 21.4584 33.4646C21.4584 35.3333 20.1313 38.3125 14.1459 38.3125C8.5667 38.3125 6.37295 35.8208 6.07503 32.625H0.116699C0.441699 38.5562 4.88337 41.8875 10.0834 42.9979V48.875H18.2084V43.0521C23.4896 42.05 27.6875 38.9896 27.6875 33.4375C27.6875 25.7458 21.1063 23.1187 14.9584 21.5208Z" fill="#EF443B"/>
</svg>
