<svg width="55" height="52" viewBox="0 0 55 52" fill="none" xmlns="http://www.w3.org/2000/svg">
<path d="M49.1667 11.2501H43.2625C43.5604 10.4105 43.75 9.48965 43.75 8.54173C43.7529 6.79438 43.1917 5.09277 42.1498 3.69001C41.108 2.28725 39.6411 1.25829 37.9674 0.756191C36.2938 0.254093 34.5028 0.305683 32.8608 0.903286C31.2188 1.50089 29.8136 2.61258 28.8542 4.07298L27.5 5.88757L26.1458 4.0459C24.6833 1.87923 22.2188 0.416733 19.375 0.416733C14.8792 0.416733 11.25 4.0459 11.25 8.54173C11.25 9.48965 11.4396 10.4105 11.7375 11.2501H5.83334C2.82709 11.2501 0.443755 13.6605 0.443755 16.6667L0.416672 46.4584C0.416672 49.4647 2.82709 51.8751 5.83334 51.8751H49.1667C52.1729 51.8751 54.5833 49.4647 54.5833 46.4584V16.6667C54.5833 13.6605 52.1729 11.2501 49.1667 11.2501ZM35.625 5.8334C37.1146 5.8334 38.3333 7.05215 38.3333 8.54173C38.3333 10.0313 37.1146 11.2501 35.625 11.2501C34.1354 11.2501 32.9167 10.0313 32.9167 8.54173C32.9167 7.05215 34.1354 5.8334 35.625 5.8334ZM19.375 5.8334C20.8646 5.8334 22.0833 7.05215 22.0833 8.54173C22.0833 10.0313 20.8646 11.2501 19.375 11.2501C17.8854 11.2501 16.6667 10.0313 16.6667 8.54173C16.6667 7.05215 17.8854 5.8334 19.375 5.8334ZM49.1667 46.4584H5.83334V41.0417H49.1667V46.4584ZM49.1667 32.9167H5.83334V16.6667H19.5917L13.9583 24.3313L18.3458 27.5001L24.7917 18.7251L27.5 15.0417L30.2083 18.7251L36.6542 27.5001L41.0417 24.3313L35.4083 16.6667H49.1667V32.9167Z" fill="#EF443B"/>
</svg>
