<svg width="49" height="61" viewBox="0 0 49 61" fill="none" xmlns="http://www.w3.org/2000/svg">
<path d="M43.4583 35.9167V46.75H38.0417V35.9167H43.4583ZM10.9583 35.9167V46.75H8.25C6.76042 46.75 5.54167 45.5312 5.54167 44.0417V35.9167H10.9583ZM24.5 0.708328C18.0353 0.708328 11.8355 3.2764 7.26427 7.8476C2.69307 12.4188 0.125 18.6187 0.125 25.0833V44.0417C0.125 48.5375 3.75417 52.1667 8.25 52.1667H16.375V30.5H5.54167V25.0833C5.54167 14.6021 14.0188 6.12499 24.5 6.12499C34.9812 6.12499 43.4583 14.6021 43.4583 25.0833V30.5H32.625V52.1667H43.4583V54.875H24.5V60.2917H40.75C45.2458 60.2917 48.875 56.6625 48.875 52.1667V25.0833C48.875 18.6187 46.3069 12.4188 41.7357 7.8476C37.1645 3.2764 30.9647 0.708328 24.5 0.708328Z" fill="#EF443B"/>
</svg>
