<svg width="14" height="14" viewBox="0 0 14 14" fill="none" xmlns="http://www.w3.org/2000/svg">
<path d="M6.96495 4.85352L6.59613 6.33222C7.01427 6.43644 8.30307 6.8616 8.51187 6.02478C8.72949 5.15232 7.38309 4.95774 6.96495 4.85352Z" fill="white"/>
<path d="M6.41022 7.07861L6.00342 8.70905C6.50544 8.83379 8.05398 9.33095 8.28294 8.41115C8.52216 7.45211 6.91224 7.20389 6.41022 7.07861Z" fill="white"/>
<path d="M8.6321 0.45177C5.01662 -0.44985 1.35398 1.75119 0.45272 5.36775C-0.449261 8.98377 1.7516 12.6466 5.36672 13.5482C8.98328 14.4498 12.6459 12.2491 13.5475 8.63295C14.4492 5.01657 12.2485 1.35321 8.6321 0.45177ZM9.97526 6.03843C9.87788 6.69597 9.51356 7.01439 9.02954 7.12581C9.69392 7.47159 10.0321 8.00223 9.70994 8.92203C9.31034 10.0641 8.36048 10.1606 7.09778 9.92157L6.79124 11.1499L6.05054 10.9654L6.35294 9.75345C6.15565 9.70458 5.9589 9.65357 5.76272 9.60045L5.45924 10.818L4.71944 10.6333L5.02598 9.40281C4.853 9.35853 4.67732 9.31137 4.49804 9.26655L3.53432 9.02607L3.90188 8.17845C3.90188 8.17845 4.44764 8.32371 4.44026 8.31291C4.64996 8.36493 4.74284 8.22813 4.77956 8.13687L5.26394 6.19521C5.29112 6.20187 5.31758 6.20835 5.34206 6.21465C5.31699 6.20479 5.29132 6.19656 5.2652 6.18999L5.61062 4.80381C5.61962 4.64649 5.56544 4.44813 5.26556 4.37325C5.27726 4.36533 4.72772 4.23951 4.72772 4.23951L4.92482 3.44841L5.94632 3.70347L5.94542 3.70725C6.09896 3.74541 6.25718 3.78159 6.41846 3.81831L6.72194 2.60205L7.4621 2.78655L7.16474 3.97905C7.36346 4.02441 7.56344 4.07013 7.7582 4.11855L8.05358 2.93397L8.7941 3.11847L8.4908 4.33527C9.42572 4.65729 10.1095 5.14005 9.97526 6.03843Z" fill="white"/>
</svg>
